<mxfile host="Electron" agent="Mozilla/5.0 (Windows NT 10.0; Win64; x64) AppleWebKit/537.36 (KHTML, like Gecko) draw.io/27.0.9 Chrome/134.0.6998.205 Electron/35.4.0 Safari/537.36" version="27.0.9">
  <diagram name="Página-1" id="1ooU3BeR20ix40zDuNgE">
    <mxGraphModel dx="2010" dy="1995" grid="1" gridSize="10" guides="1" tooltips="1" connect="1" arrows="1" fold="1" page="1" pageScale="1" pageWidth="827" pageHeight="1169" math="0" shadow="0">
      <root>
        <mxCell id="0" />
        <mxCell id="1" parent="0" />
        <mxCell id="-cQT6DstCa3h_BNdUmeV-2" value="&lt;div style=&quot;line-height: 100%;&quot;&gt;&lt;div style=&quot;text-align: left;&quot;&gt;&lt;font style=&quot;color: rgb(51, 153, 255);&quot;&gt;&lt;span style=&quot;background-color: transparent;&quot;&gt;&lt;font style=&quot;font-size: 10px;&quot;&gt;El departamento de formación de una empresa desea construir una base de datos para planificar y gestionar la&amp;nbsp;&lt;/font&gt;&lt;/span&gt;&lt;span style=&quot;font-size: 10px; background-color: transparent;&quot;&gt;formación de sus empleados.&lt;/span&gt;&lt;/font&gt;&lt;/div&gt;&lt;div style=&quot;text-align: left;&quot;&gt;&lt;font style=&quot;color: rgb(102, 255, 102);&quot;&gt;&lt;span style=&quot;background-color: transparent;&quot;&gt;&lt;font style=&quot;font-size: 10px;&quot;&gt;• La empresa organiza cursos internos de formación de los que se desea conocer el código de curso, el&amp;nbsp;&lt;/font&gt;&lt;/span&gt;&lt;span style=&quot;font-size: 10px; background-color: transparent;&quot;&gt;nombre, una descripción, el número de horas de duración y el coste del curso.&lt;/span&gt;&lt;/font&gt;&lt;/div&gt;&lt;div style=&quot;text-align: left;&quot;&gt;&lt;span style=&quot;background-color: transparent;&quot;&gt;&lt;font style=&quot;font-size: 10px;&quot;&gt;&lt;font style=&quot;color: rgb(0, 204, 0);&quot;&gt;• Un curso puede tener como prerrequisito haber realizado otro u otros previamente, y a su vez, la&amp;nbsp;&lt;/font&gt;&lt;/font&gt;&lt;/span&gt;&lt;font style=&quot;color: rgb(0, 204, 0);&quot;&gt;&lt;span style=&quot;font-size: 10px; background-color: transparent;&quot;&gt;realización de un curso puede ser prerrequisito de otros. Un curso que es un prerrequisito de otro puede&amp;nbsp;&lt;/span&gt;&lt;span style=&quot;font-size: 10px; background-color: transparent;&quot;&gt;serlo de forma obligatoria o sólo recomendable.&lt;/span&gt;&lt;/font&gt;&lt;/div&gt;&lt;div style=&quot;text-align: left;&quot;&gt;&lt;font style=&quot;color: rgb(102, 255, 102);&quot;&gt;&lt;span style=&quot;background-color: transparent;&quot;&gt;&lt;font style=&quot;font-size: 10px;&quot;&gt;• Un mismo curso tiene diferentes ediciones, es decir, se imparte en diferentes lugares, fechas y con&lt;/font&gt;&lt;/span&gt;&lt;span style=&quot;font-size: 10px; background-color: transparent;&quot;&gt;diferentes horarios (intensivo, de mañana o de tarde). En una misma fecha de inicio sólo puede&amp;nbsp;&lt;/span&gt;&lt;span style=&quot;font-size: 10px; background-color: transparent;&quot;&gt;impartirse una edición de un mismo curso.&lt;/span&gt;&lt;/font&gt;&lt;/div&gt;&lt;div style=&quot;text-align: left;&quot;&gt;&lt;span style=&quot;background-color: light-dark(#ffffff, var(--ge-dark-color, #121212));&quot;&gt;&lt;font style=&quot;font-size: 10px; color: rgb(0, 204, 0);&quot;&gt;• Los cursos se imparten por personal de la propia empresa.&lt;/font&gt;&lt;/span&gt;&lt;/div&gt;&lt;div style=&quot;text-align: left;&quot;&gt;&lt;font style=&quot;color: rgb(102, 255, 102);&quot;&gt;&lt;span style=&quot;background-color: transparent;&quot;&gt;&lt;font style=&quot;font-size: 10px;&quot;&gt;• De los empleados se desea almacenar su código de empleado, nombre y apellidos, dirección, teléfono,&lt;/font&gt;&lt;/span&gt;&lt;span style=&quot;font-size: 10px; background-color: transparent;&quot;&gt;NIF (Número de Identificación Fiscal), fecha de nacimiento, nacionalidad, sexo, firma y salario, así&lt;/span&gt;&lt;span style=&quot;font-size: 10px; background-color: transparent;&quot;&gt;como si está o no capacitado para impartir cursos.&lt;/span&gt;&lt;/font&gt;&lt;/div&gt;&lt;div style=&quot;text-align: left;&quot;&gt;&lt;span style=&quot;background-color: transparent;&quot;&gt;&lt;font style=&quot;font-size: 10px;&quot;&gt;&lt;div style=&quot;&quot;&gt;&lt;font style=&quot;color: light-dark(rgb(0, 0, 0), rgb(0, 204, 0));&quot;&gt;• Un mismo empleado puede ser docente en una edición de un curso y alumno en otra edición, pero&amp;nbsp;&lt;span style=&quot;background-color: transparent;&quot;&gt;nunca puede ser ambas cosas a la vez (en una misma edición de curso o lo imparte o lo recibe).&lt;/span&gt;&lt;/font&gt;&lt;/div&gt;&lt;div style=&quot;color: light-dark(rgb(0, 0, 0), rgb(255, 255, 255));&quot;&gt;&lt;br&gt;&lt;/div&gt;&lt;/font&gt;&lt;/span&gt;&lt;/div&gt;&lt;div&gt;&lt;/div&gt;&lt;/div&gt;" style="text;html=1;align=center;verticalAlign=middle;whiteSpace=wrap;rounded=0;" vertex="1" parent="1">
          <mxGeometry x="-190" y="-36" width="480" height="240" as="geometry" />
        </mxCell>
        <mxCell id="-cQT6DstCa3h_BNdUmeV-3" value="curso" style="whiteSpace=wrap;html=1;align=center;fillColor=#f0a30a;strokeColor=#BD7000;fontColor=#000000;" vertex="1" parent="1">
          <mxGeometry x="-240" y="320" width="60" height="40" as="geometry" />
        </mxCell>
        <mxCell id="-cQT6DstCa3h_BNdUmeV-15" value="necesita" style="shape=rhombus;perimeter=rhombusPerimeter;whiteSpace=wrap;html=1;align=center;fillColor=#76608a;fontColor=#ffffff;strokeColor=#432D57;" vertex="1" parent="1">
          <mxGeometry x="-150" y="270" width="90" height="40" as="geometry" />
        </mxCell>
        <mxCell id="-cQT6DstCa3h_BNdUmeV-16" value="" style="endArrow=none;html=1;rounded=0;exitX=0;exitY=0.5;exitDx=0;exitDy=0;entryX=0.5;entryY=0;entryDx=0;entryDy=0;" edge="1" source="-cQT6DstCa3h_BNdUmeV-15" parent="1" target="-cQT6DstCa3h_BNdUmeV-3">
          <mxGeometry relative="1" as="geometry">
            <mxPoint x="-173" y="260" as="sourcePoint" />
            <mxPoint x="-220" y="290" as="targetPoint" />
            <Array as="points">
              <mxPoint x="-210" y="290" />
            </Array>
          </mxGeometry>
        </mxCell>
        <mxCell id="-cQT6DstCa3h_BNdUmeV-17" value="(0,M)" style="resizable=0;html=1;whiteSpace=wrap;align=right;verticalAlign=bottom;" connectable="0" vertex="1" parent="-cQT6DstCa3h_BNdUmeV-16">
          <mxGeometry x="1" relative="1" as="geometry">
            <mxPoint x="30" y="-40" as="offset" />
          </mxGeometry>
        </mxCell>
        <mxCell id="-cQT6DstCa3h_BNdUmeV-130" value="es requerido" style="edgeLabel;html=1;align=center;verticalAlign=middle;resizable=0;points=[];" vertex="1" connectable="0" parent="-cQT6DstCa3h_BNdUmeV-16">
          <mxGeometry x="-0.3148" y="-1" relative="1" as="geometry">
            <mxPoint as="offset" />
          </mxGeometry>
        </mxCell>
        <mxCell id="-cQT6DstCa3h_BNdUmeV-18" value="" style="endArrow=none;html=1;rounded=0;exitX=1;exitY=0.5;exitDx=0;exitDy=0;entryX=1;entryY=0.5;entryDx=0;entryDy=0;" edge="1" source="-cQT6DstCa3h_BNdUmeV-15" parent="1" target="-cQT6DstCa3h_BNdUmeV-3">
          <mxGeometry relative="1" as="geometry">
            <mxPoint x="-173" y="260" as="sourcePoint" />
            <mxPoint y="290" as="targetPoint" />
            <Array as="points">
              <mxPoint x="-60" y="340" />
            </Array>
          </mxGeometry>
        </mxCell>
        <mxCell id="-cQT6DstCa3h_BNdUmeV-19" value="(0,N)" style="resizable=0;html=1;whiteSpace=wrap;align=right;verticalAlign=bottom;" connectable="0" vertex="1" parent="-cQT6DstCa3h_BNdUmeV-18">
          <mxGeometry x="1" relative="1" as="geometry">
            <mxPoint x="40" as="offset" />
          </mxGeometry>
        </mxCell>
        <mxCell id="-cQT6DstCa3h_BNdUmeV-129" value="requiere" style="edgeLabel;html=1;align=center;verticalAlign=middle;resizable=0;points=[];" vertex="1" connectable="0" parent="-cQT6DstCa3h_BNdUmeV-18">
          <mxGeometry x="0.2843" y="-1" relative="1" as="geometry">
            <mxPoint as="offset" />
          </mxGeometry>
        </mxCell>
        <mxCell id="-cQT6DstCa3h_BNdUmeV-20" value="tiene" style="shape=rhombus;perimeter=rhombusPerimeter;whiteSpace=wrap;html=1;align=center;fillColor=#76608a;fontColor=#ffffff;strokeColor=#432D57;" vertex="1" parent="1">
          <mxGeometry x="-145" y="390" width="90" height="40" as="geometry" />
        </mxCell>
        <mxCell id="-cQT6DstCa3h_BNdUmeV-21" value="" style="endArrow=none;html=1;rounded=0;exitX=0;exitY=0.5;exitDx=0;exitDy=0;entryX=0.5;entryY=1;entryDx=0;entryDy=0;" edge="1" source="-cQT6DstCa3h_BNdUmeV-20" parent="1" target="-cQT6DstCa3h_BNdUmeV-3">
          <mxGeometry relative="1" as="geometry">
            <mxPoint x="-168" y="380" as="sourcePoint" />
            <mxPoint x="-215" y="410" as="targetPoint" />
            <Array as="points">
              <mxPoint x="-210" y="410" />
            </Array>
          </mxGeometry>
        </mxCell>
        <mxCell id="-cQT6DstCa3h_BNdUmeV-22" value="(1,1)" style="resizable=0;html=1;whiteSpace=wrap;align=right;verticalAlign=bottom;" connectable="0" vertex="1" parent="-cQT6DstCa3h_BNdUmeV-21">
          <mxGeometry x="1" relative="1" as="geometry">
            <mxPoint x="30" y="30" as="offset" />
          </mxGeometry>
        </mxCell>
        <mxCell id="-cQT6DstCa3h_BNdUmeV-23" value="" style="endArrow=none;html=1;rounded=0;exitX=1;exitY=0.5;exitDx=0;exitDy=0;entryX=0;entryY=0.5;entryDx=0;entryDy=0;" edge="1" source="-cQT6DstCa3h_BNdUmeV-20" parent="1" target="-cQT6DstCa3h_BNdUmeV-25">
          <mxGeometry relative="1" as="geometry">
            <mxPoint x="-168" y="380" as="sourcePoint" />
            <mxPoint y="410" as="targetPoint" />
          </mxGeometry>
        </mxCell>
        <mxCell id="-cQT6DstCa3h_BNdUmeV-24" value="(1,N)" style="resizable=0;html=1;whiteSpace=wrap;align=right;verticalAlign=bottom;" connectable="0" vertex="1" parent="-cQT6DstCa3h_BNdUmeV-23">
          <mxGeometry x="1" relative="1" as="geometry">
            <mxPoint as="offset" />
          </mxGeometry>
        </mxCell>
        <mxCell id="-cQT6DstCa3h_BNdUmeV-25" value="edicion" style="whiteSpace=wrap;html=1;align=center;fillColor=#f0a30a;strokeColor=#BD7000;fontColor=#000000;shape=ext;margin=3;double=1;" vertex="1" parent="1">
          <mxGeometry x="20" y="390" width="60" height="40" as="geometry" />
        </mxCell>
        <mxCell id="-cQT6DstCa3h_BNdUmeV-49" value="empleado" style="whiteSpace=wrap;html=1;align=center;fillColor=#f0a30a;strokeColor=#BD7000;fontColor=#000000;" vertex="1" parent="1">
          <mxGeometry x="240" y="390" width="80" height="40" as="geometry" />
        </mxCell>
        <mxCell id="-cQT6DstCa3h_BNdUmeV-50" value="" style="triangle;whiteSpace=wrap;html=1;rotation=90;fillColor=#f0a30a;strokeColor=#BD7000;fontColor=#000000;" vertex="1" parent="1">
          <mxGeometry x="265" y="455" width="30" height="60" as="geometry" />
        </mxCell>
        <mxCell id="-cQT6DstCa3h_BNdUmeV-51" value="" style="endArrow=none;html=1;rounded=0;exitX=0.5;exitY=1;exitDx=0;exitDy=0;entryX=0.453;entryY=0.056;entryDx=0;entryDy=0;entryPerimeter=0;" edge="1" source="-cQT6DstCa3h_BNdUmeV-50" parent="1" target="-cQT6DstCa3h_BNdUmeV-58">
          <mxGeometry relative="1" as="geometry">
            <mxPoint x="420" y="500" as="sourcePoint" />
            <mxPoint x="140" y="558" as="targetPoint" />
          </mxGeometry>
        </mxCell>
        <mxCell id="-cQT6DstCa3h_BNdUmeV-52" value="" style="endArrow=none;html=1;rounded=0;exitX=0.5;exitY=0;exitDx=0;exitDy=0;entryX=0.5;entryY=0;entryDx=0;entryDy=0;" edge="1" source="-cQT6DstCa3h_BNdUmeV-50" parent="1" target="-cQT6DstCa3h_BNdUmeV-59">
          <mxGeometry relative="1" as="geometry">
            <mxPoint x="420" y="500" as="sourcePoint" />
            <mxPoint x="430" y="558" as="targetPoint" />
          </mxGeometry>
        </mxCell>
        <mxCell id="-cQT6DstCa3h_BNdUmeV-53" value="" style="endArrow=none;html=1;rounded=0;exitX=0;exitY=0.5;exitDx=0;exitDy=0;entryX=0.5;entryY=1;entryDx=0;entryDy=0;" edge="1" source="-cQT6DstCa3h_BNdUmeV-50" target="-cQT6DstCa3h_BNdUmeV-49" parent="1">
          <mxGeometry relative="1" as="geometry">
            <mxPoint x="280" y="445" as="sourcePoint" />
            <mxPoint x="580" y="500" as="targetPoint" />
          </mxGeometry>
        </mxCell>
        <mxCell id="-cQT6DstCa3h_BNdUmeV-54" value="" style="ellipse;whiteSpace=wrap;html=1;aspect=fixed;" vertex="1" parent="1">
          <mxGeometry x="327" y="474" width="10" height="10" as="geometry" />
        </mxCell>
        <mxCell id="-cQT6DstCa3h_BNdUmeV-55" value="" style="endArrow=none;html=1;rounded=0;exitX=0;exitY=0.5;exitDx=0;exitDy=0;entryX=0.3;entryY=0.167;entryDx=0;entryDy=0;entryPerimeter=0;" edge="1" source="-cQT6DstCa3h_BNdUmeV-54" target="-cQT6DstCa3h_BNdUmeV-50" parent="1">
          <mxGeometry relative="1" as="geometry">
            <mxPoint x="420" y="500" as="sourcePoint" />
            <mxPoint x="580" y="500" as="targetPoint" />
          </mxGeometry>
        </mxCell>
        <mxCell id="-cQT6DstCa3h_BNdUmeV-56" value="Tipo" style="text;html=1;align=center;verticalAlign=middle;whiteSpace=wrap;rounded=0;" vertex="1" parent="1">
          <mxGeometry x="327" y="464" width="60" height="30" as="geometry" />
        </mxCell>
        <mxCell id="-cQT6DstCa3h_BNdUmeV-57" value="" style="endArrow=none;html=1;rounded=0;" edge="1" parent="1">
          <mxGeometry relative="1" as="geometry">
            <mxPoint x="190" y="500" as="sourcePoint" />
            <mxPoint x="370" y="500" as="targetPoint" />
            <Array as="points">
              <mxPoint x="280" y="530" />
            </Array>
          </mxGeometry>
        </mxCell>
        <mxCell id="-cQT6DstCa3h_BNdUmeV-58" value="docente" style="whiteSpace=wrap;html=1;align=center;fillColor=#f0a30a;strokeColor=#BD7000;fontColor=#000000;" vertex="1" parent="1">
          <mxGeometry x="130" y="540" width="60" height="40" as="geometry" />
        </mxCell>
        <mxCell id="-cQT6DstCa3h_BNdUmeV-59" value="alumno" style="whiteSpace=wrap;html=1;align=center;fillColor=#f0a30a;strokeColor=#BD7000;fontColor=#000000;" vertex="1" parent="1">
          <mxGeometry x="377" y="540" width="63" height="40" as="geometry" />
        </mxCell>
        <mxCell id="-cQT6DstCa3h_BNdUmeV-75" value="matricula" style="shape=rhombus;perimeter=rhombusPerimeter;whiteSpace=wrap;html=1;align=center;fillColor=#76608a;fontColor=#ffffff;strokeColor=#432D57;" vertex="1" parent="1">
          <mxGeometry x="115" y="390" width="90" height="40" as="geometry" />
        </mxCell>
        <mxCell id="-cQT6DstCa3h_BNdUmeV-76" value="" style="endArrow=none;html=1;rounded=0;exitX=0;exitY=0.5;exitDx=0;exitDy=0;entryX=1;entryY=0.5;entryDx=0;entryDy=0;" edge="1" source="-cQT6DstCa3h_BNdUmeV-75" parent="1" target="-cQT6DstCa3h_BNdUmeV-25">
          <mxGeometry relative="1" as="geometry">
            <mxPoint x="97" y="270" as="sourcePoint" />
            <mxPoint x="50" y="300" as="targetPoint" />
          </mxGeometry>
        </mxCell>
        <mxCell id="-cQT6DstCa3h_BNdUmeV-77" value="(0,N)" style="resizable=0;html=1;whiteSpace=wrap;align=right;verticalAlign=bottom;" connectable="0" vertex="1" parent="-cQT6DstCa3h_BNdUmeV-76">
          <mxGeometry x="1" relative="1" as="geometry">
            <mxPoint x="34" as="offset" />
          </mxGeometry>
        </mxCell>
        <mxCell id="-cQT6DstCa3h_BNdUmeV-78" value="" style="endArrow=none;html=1;rounded=0;exitX=1;exitY=0.5;exitDx=0;exitDy=0;entryX=0;entryY=0.5;entryDx=0;entryDy=0;" edge="1" source="-cQT6DstCa3h_BNdUmeV-75" parent="1" target="-cQT6DstCa3h_BNdUmeV-49">
          <mxGeometry relative="1" as="geometry">
            <mxPoint x="97" y="270" as="sourcePoint" />
            <mxPoint x="270" y="300" as="targetPoint" />
          </mxGeometry>
        </mxCell>
        <mxCell id="-cQT6DstCa3h_BNdUmeV-79" value="(1,M)" style="resizable=0;html=1;whiteSpace=wrap;align=right;verticalAlign=bottom;" connectable="0" vertex="1" parent="-cQT6DstCa3h_BNdUmeV-78">
          <mxGeometry x="1" relative="1" as="geometry">
            <mxPoint as="offset" />
          </mxGeometry>
        </mxCell>
        <mxCell id="-cQT6DstCa3h_BNdUmeV-80" value="imparte" style="shape=rhombus;perimeter=rhombusPerimeter;whiteSpace=wrap;html=1;align=center;fillColor=#76608a;fontColor=#ffffff;strokeColor=#432D57;" vertex="1" parent="1">
          <mxGeometry x="5" y="540" width="90" height="40" as="geometry" />
        </mxCell>
        <mxCell id="-cQT6DstCa3h_BNdUmeV-81" value="" style="endArrow=none;html=1;rounded=0;exitX=0.5;exitY=0;exitDx=0;exitDy=0;entryX=0.5;entryY=1;entryDx=0;entryDy=0;" edge="1" source="-cQT6DstCa3h_BNdUmeV-80" parent="1" target="-cQT6DstCa3h_BNdUmeV-25">
          <mxGeometry relative="1" as="geometry">
            <mxPoint x="-58" y="505" as="sourcePoint" />
            <mxPoint x="-105" y="535" as="targetPoint" />
          </mxGeometry>
        </mxCell>
        <mxCell id="-cQT6DstCa3h_BNdUmeV-82" value="(0,M)" style="resizable=0;html=1;whiteSpace=wrap;align=right;verticalAlign=bottom;" connectable="0" vertex="1" parent="-cQT6DstCa3h_BNdUmeV-81">
          <mxGeometry x="1" relative="1" as="geometry">
            <mxPoint x="30" y="34" as="offset" />
          </mxGeometry>
        </mxCell>
        <mxCell id="-cQT6DstCa3h_BNdUmeV-83" value="" style="endArrow=none;html=1;rounded=0;exitX=1;exitY=0.5;exitDx=0;exitDy=0;entryX=0;entryY=0.5;entryDx=0;entryDy=0;" edge="1" source="-cQT6DstCa3h_BNdUmeV-80" parent="1" target="-cQT6DstCa3h_BNdUmeV-58">
          <mxGeometry relative="1" as="geometry">
            <mxPoint x="-58" y="505" as="sourcePoint" />
            <mxPoint x="115" y="535" as="targetPoint" />
          </mxGeometry>
        </mxCell>
        <mxCell id="-cQT6DstCa3h_BNdUmeV-84" value="(1,N)" style="resizable=0;html=1;whiteSpace=wrap;align=right;verticalAlign=bottom;" connectable="0" vertex="1" parent="-cQT6DstCa3h_BNdUmeV-83">
          <mxGeometry x="1" relative="1" as="geometry">
            <mxPoint as="offset" />
          </mxGeometry>
        </mxCell>
        <mxCell id="-cQT6DstCa3h_BNdUmeV-85" value="" style="endArrow=none;html=1;rounded=0;exitX=0.25;exitY=0;exitDx=0;exitDy=0;" edge="1" target="-cQT6DstCa3h_BNdUmeV-86" parent="1" source="-cQT6DstCa3h_BNdUmeV-3">
          <mxGeometry relative="1" as="geometry">
            <mxPoint x="-370" y="285" as="sourcePoint" />
            <mxPoint x="-310" y="285" as="targetPoint" />
          </mxGeometry>
        </mxCell>
        <mxCell id="-cQT6DstCa3h_BNdUmeV-86" value="&lt;u&gt;codigo&lt;/u&gt;" style="ellipse;whiteSpace=wrap;html=1;align=center;" vertex="1" parent="1">
          <mxGeometry x="-290" y="260" width="50" height="30" as="geometry" />
        </mxCell>
        <mxCell id="-cQT6DstCa3h_BNdUmeV-87" value="" style="endArrow=none;html=1;rounded=0;exitX=0;exitY=0.25;exitDx=0;exitDy=0;" edge="1" target="-cQT6DstCa3h_BNdUmeV-88" parent="1" source="-cQT6DstCa3h_BNdUmeV-3">
          <mxGeometry relative="1" as="geometry">
            <mxPoint x="-360" y="315" as="sourcePoint" />
            <mxPoint x="-300" y="315" as="targetPoint" />
          </mxGeometry>
        </mxCell>
        <mxCell id="-cQT6DstCa3h_BNdUmeV-88" value="nombre" style="ellipse;whiteSpace=wrap;html=1;align=center;" vertex="1" parent="1">
          <mxGeometry x="-325" y="300" width="50" height="30" as="geometry" />
        </mxCell>
        <mxCell id="-cQT6DstCa3h_BNdUmeV-89" value="" style="endArrow=none;html=1;rounded=0;exitX=0;exitY=0.75;exitDx=0;exitDy=0;" edge="1" target="-cQT6DstCa3h_BNdUmeV-90" parent="1" source="-cQT6DstCa3h_BNdUmeV-3">
          <mxGeometry relative="1" as="geometry">
            <mxPoint x="-360" y="355" as="sourcePoint" />
            <mxPoint x="-300" y="355" as="targetPoint" />
          </mxGeometry>
        </mxCell>
        <mxCell id="-cQT6DstCa3h_BNdUmeV-90" value="descripcion" style="ellipse;whiteSpace=wrap;html=1;align=center;" vertex="1" parent="1">
          <mxGeometry x="-337.5" y="340" width="75" height="30" as="geometry" />
        </mxCell>
        <mxCell id="-cQT6DstCa3h_BNdUmeV-91" value="" style="endArrow=none;html=1;rounded=0;exitX=0;exitY=1;exitDx=0;exitDy=0;" edge="1" target="-cQT6DstCa3h_BNdUmeV-92" parent="1" source="-cQT6DstCa3h_BNdUmeV-3">
          <mxGeometry relative="1" as="geometry">
            <mxPoint x="-350" y="405" as="sourcePoint" />
            <mxPoint x="-290" y="405" as="targetPoint" />
          </mxGeometry>
        </mxCell>
        <mxCell id="-cQT6DstCa3h_BNdUmeV-92" value="duracion" style="ellipse;whiteSpace=wrap;html=1;align=center;" vertex="1" parent="1">
          <mxGeometry x="-325" y="380" width="50" height="30" as="geometry" />
        </mxCell>
        <mxCell id="-cQT6DstCa3h_BNdUmeV-93" value="" style="endArrow=none;html=1;rounded=0;exitX=0.25;exitY=1;exitDx=0;exitDy=0;" edge="1" target="-cQT6DstCa3h_BNdUmeV-94" parent="1" source="-cQT6DstCa3h_BNdUmeV-3">
          <mxGeometry relative="1" as="geometry">
            <mxPoint x="-307" y="435" as="sourcePoint" />
            <mxPoint x="-247" y="435" as="targetPoint" />
          </mxGeometry>
        </mxCell>
        <mxCell id="-cQT6DstCa3h_BNdUmeV-94" value="coste" style="ellipse;whiteSpace=wrap;html=1;align=center;" vertex="1" parent="1">
          <mxGeometry x="-272" y="390" width="50" height="30" as="geometry" />
        </mxCell>
        <mxCell id="-cQT6DstCa3h_BNdUmeV-97" value="" style="endArrow=none;html=1;rounded=0;exitX=0.5;exitY=0;exitDx=0;exitDy=0;" edge="1" target="-cQT6DstCa3h_BNdUmeV-98" parent="1" source="-cQT6DstCa3h_BNdUmeV-25">
          <mxGeometry relative="1" as="geometry">
            <mxPoint x="20" y="325" as="sourcePoint" />
            <mxPoint x="80" y="325" as="targetPoint" />
          </mxGeometry>
        </mxCell>
        <mxCell id="-cQT6DstCa3h_BNdUmeV-98" value="&lt;u&gt;fecha&lt;/u&gt;" style="ellipse;whiteSpace=wrap;html=1;align=center;" vertex="1" parent="1">
          <mxGeometry x="25" y="310" width="50" height="30" as="geometry" />
        </mxCell>
        <mxCell id="-cQT6DstCa3h_BNdUmeV-101" value="" style="endArrow=none;html=1;rounded=0;exitX=0.75;exitY=0;exitDx=0;exitDy=0;" edge="1" target="-cQT6DstCa3h_BNdUmeV-102" parent="1" source="-cQT6DstCa3h_BNdUmeV-25">
          <mxGeometry relative="1" as="geometry">
            <mxPoint x="90" y="285" as="sourcePoint" />
            <mxPoint x="150" y="285" as="targetPoint" />
          </mxGeometry>
        </mxCell>
        <mxCell id="-cQT6DstCa3h_BNdUmeV-102" value="lugar" style="ellipse;whiteSpace=wrap;html=1;align=center;" vertex="1" parent="1">
          <mxGeometry x="75" y="340" width="50" height="30" as="geometry" />
        </mxCell>
        <mxCell id="-cQT6DstCa3h_BNdUmeV-103" value="" style="endArrow=none;html=1;rounded=0;exitX=0.25;exitY=0;exitDx=0;exitDy=0;" edge="1" target="-cQT6DstCa3h_BNdUmeV-104" parent="1" source="-cQT6DstCa3h_BNdUmeV-25">
          <mxGeometry relative="1" as="geometry">
            <mxPoint x="-55" y="285" as="sourcePoint" />
            <mxPoint x="5" y="285" as="targetPoint" />
          </mxGeometry>
        </mxCell>
        <mxCell id="-cQT6DstCa3h_BNdUmeV-104" value="horario" style="ellipse;whiteSpace=wrap;html=1;align=center;" vertex="1" parent="1">
          <mxGeometry x="-20" y="340" width="50" height="30" as="geometry" />
        </mxCell>
        <mxCell id="-cQT6DstCa3h_BNdUmeV-105" value="" style="endArrow=none;html=1;rounded=0;exitX=0.5;exitY=0;exitDx=0;exitDy=0;" edge="1" target="-cQT6DstCa3h_BNdUmeV-106" parent="1" source="-cQT6DstCa3h_BNdUmeV-49">
          <mxGeometry relative="1" as="geometry">
            <mxPoint x="252" y="315" as="sourcePoint" />
            <mxPoint x="312" y="315" as="targetPoint" />
          </mxGeometry>
        </mxCell>
        <mxCell id="-cQT6DstCa3h_BNdUmeV-106" value="&lt;u&gt;NIF&lt;/u&gt;" style="ellipse;whiteSpace=wrap;html=1;align=center;" vertex="1" parent="1">
          <mxGeometry x="255" y="300" width="50" height="30" as="geometry" />
        </mxCell>
        <mxCell id="-cQT6DstCa3h_BNdUmeV-107" value="" style="endArrow=none;html=1;rounded=0;exitX=0.75;exitY=0;exitDx=0;exitDy=0;" edge="1" target="-cQT6DstCa3h_BNdUmeV-108" parent="1" source="-cQT6DstCa3h_BNdUmeV-49">
          <mxGeometry relative="1" as="geometry">
            <mxPoint x="315" y="315" as="sourcePoint" />
            <mxPoint x="375" y="315" as="targetPoint" />
          </mxGeometry>
        </mxCell>
        <mxCell id="-cQT6DstCa3h_BNdUmeV-108" value="codEmpleado" style="ellipse;whiteSpace=wrap;html=1;align=center;" vertex="1" parent="1">
          <mxGeometry x="337" y="250" width="90" height="30" as="geometry" />
        </mxCell>
        <mxCell id="-cQT6DstCa3h_BNdUmeV-109" value="" style="endArrow=none;html=1;rounded=0;exitX=1;exitY=0;exitDx=0;exitDy=0;" edge="1" target="-cQT6DstCa3h_BNdUmeV-110" parent="1" source="-cQT6DstCa3h_BNdUmeV-49">
          <mxGeometry relative="1" as="geometry">
            <mxPoint x="355" y="385" as="sourcePoint" />
            <mxPoint x="415" y="385" as="targetPoint" />
          </mxGeometry>
        </mxCell>
        <mxCell id="-cQT6DstCa3h_BNdUmeV-110" value="nombre" style="ellipse;whiteSpace=wrap;html=1;align=center;" vertex="1" parent="1">
          <mxGeometry x="377" y="290" width="50" height="30" as="geometry" />
        </mxCell>
        <mxCell id="-cQT6DstCa3h_BNdUmeV-111" value="" style="endArrow=none;html=1;rounded=0;exitX=1;exitY=0.25;exitDx=0;exitDy=0;" edge="1" target="-cQT6DstCa3h_BNdUmeV-112" parent="1" source="-cQT6DstCa3h_BNdUmeV-49">
          <mxGeometry relative="1" as="geometry">
            <mxPoint x="355" y="425" as="sourcePoint" />
            <mxPoint x="415" y="425" as="targetPoint" />
          </mxGeometry>
        </mxCell>
        <mxCell id="-cQT6DstCa3h_BNdUmeV-112" value="apellido1" style="ellipse;whiteSpace=wrap;html=1;align=center;" vertex="1" parent="1">
          <mxGeometry x="403" y="317.5" width="57" height="30" as="geometry" />
        </mxCell>
        <mxCell id="-cQT6DstCa3h_BNdUmeV-113" value="" style="endArrow=none;html=1;rounded=0;exitX=1;exitY=0.75;exitDx=0;exitDy=0;" edge="1" target="-cQT6DstCa3h_BNdUmeV-114" parent="1" source="-cQT6DstCa3h_BNdUmeV-49">
          <mxGeometry relative="1" as="geometry">
            <mxPoint x="355" y="440" as="sourcePoint" />
            <mxPoint x="415" y="440" as="targetPoint" />
          </mxGeometry>
        </mxCell>
        <mxCell id="-cQT6DstCa3h_BNdUmeV-114" value="direccion" style="ellipse;whiteSpace=wrap;html=1;align=center;" vertex="1" parent="1">
          <mxGeometry x="363" y="430" width="50" height="30" as="geometry" />
        </mxCell>
        <mxCell id="-cQT6DstCa3h_BNdUmeV-115" value="" style="endArrow=none;html=1;rounded=0;exitX=0.25;exitY=0;exitDx=0;exitDy=0;" edge="1" target="-cQT6DstCa3h_BNdUmeV-116" parent="1" source="-cQT6DstCa3h_BNdUmeV-49">
          <mxGeometry relative="1" as="geometry">
            <mxPoint x="170" y="285" as="sourcePoint" />
            <mxPoint x="230" y="285" as="targetPoint" />
          </mxGeometry>
        </mxCell>
        <mxCell id="-cQT6DstCa3h_BNdUmeV-116" value="tlf" style="ellipse;whiteSpace=wrap;html=1;align=center;" vertex="1" parent="1">
          <mxGeometry x="230" y="330" width="25" height="30" as="geometry" />
        </mxCell>
        <mxCell id="-cQT6DstCa3h_BNdUmeV-117" value="" style="endArrow=none;html=1;rounded=0;exitX=0;exitY=0;exitDx=0;exitDy=0;" edge="1" target="-cQT6DstCa3h_BNdUmeV-118" parent="1" source="-cQT6DstCa3h_BNdUmeV-49">
          <mxGeometry relative="1" as="geometry">
            <mxPoint x="115" y="285" as="sourcePoint" />
            <mxPoint x="175" y="285" as="targetPoint" />
          </mxGeometry>
        </mxCell>
        <mxCell id="-cQT6DstCa3h_BNdUmeV-118" value="fechaNaci" style="ellipse;whiteSpace=wrap;html=1;align=center;" vertex="1" parent="1">
          <mxGeometry x="170" y="340" width="50" height="30" as="geometry" />
        </mxCell>
        <mxCell id="-cQT6DstCa3h_BNdUmeV-119" value="" style="endArrow=none;html=1;rounded=0;exitX=1;exitY=0.5;exitDx=0;exitDy=0;" edge="1" target="-cQT6DstCa3h_BNdUmeV-120" parent="1" source="-cQT6DstCa3h_BNdUmeV-49">
          <mxGeometry relative="1" as="geometry">
            <mxPoint x="427" y="355" as="sourcePoint" />
            <mxPoint x="487" y="355" as="targetPoint" />
          </mxGeometry>
        </mxCell>
        <mxCell id="-cQT6DstCa3h_BNdUmeV-120" value="nacionalidad" style="ellipse;whiteSpace=wrap;html=1;align=center;" vertex="1" parent="1">
          <mxGeometry x="370" y="390" width="77" height="30" as="geometry" />
        </mxCell>
        <mxCell id="-cQT6DstCa3h_BNdUmeV-121" value="" style="endArrow=none;html=1;rounded=0;exitX=0.996;exitY=0.631;exitDx=0;exitDy=0;exitPerimeter=0;" edge="1" target="-cQT6DstCa3h_BNdUmeV-122" parent="1" source="-cQT6DstCa3h_BNdUmeV-49">
          <mxGeometry relative="1" as="geometry">
            <mxPoint x="302" y="410" as="sourcePoint" />
            <mxPoint x="465" y="405" as="targetPoint" />
          </mxGeometry>
        </mxCell>
        <mxCell id="-cQT6DstCa3h_BNdUmeV-122" value="sexo" style="ellipse;whiteSpace=wrap;html=1;align=center;" vertex="1" parent="1">
          <mxGeometry x="427" y="420" width="50" height="30" as="geometry" />
        </mxCell>
        <mxCell id="-cQT6DstCa3h_BNdUmeV-123" value="" style="endArrow=none;html=1;rounded=0;exitX=1;exitY=1;exitDx=0;exitDy=0;" edge="1" target="-cQT6DstCa3h_BNdUmeV-124" parent="1" source="-cQT6DstCa3h_BNdUmeV-49">
          <mxGeometry relative="1" as="geometry">
            <mxPoint x="390" y="430" as="sourcePoint" />
            <mxPoint x="493" y="445" as="targetPoint" />
          </mxGeometry>
        </mxCell>
        <mxCell id="-cQT6DstCa3h_BNdUmeV-124" value="firma" style="ellipse;whiteSpace=wrap;html=1;align=center;" vertex="1" parent="1">
          <mxGeometry x="387" y="474" width="50" height="30" as="geometry" />
        </mxCell>
        <mxCell id="-cQT6DstCa3h_BNdUmeV-125" value="" style="endArrow=none;html=1;rounded=0;exitX=0.624;exitY=0.014;exitDx=0;exitDy=0;exitPerimeter=0;" edge="1" target="-cQT6DstCa3h_BNdUmeV-126" parent="1" source="-cQT6DstCa3h_BNdUmeV-49">
          <mxGeometry relative="1" as="geometry">
            <mxPoint x="242" y="245" as="sourcePoint" />
            <mxPoint x="302" y="245" as="targetPoint" />
          </mxGeometry>
        </mxCell>
        <mxCell id="-cQT6DstCa3h_BNdUmeV-126" value="salaio" style="ellipse;whiteSpace=wrap;html=1;align=center;" vertex="1" parent="1">
          <mxGeometry x="295" y="280" width="50" height="30" as="geometry" />
        </mxCell>
        <mxCell id="-cQT6DstCa3h_BNdUmeV-131" value="" style="endArrow=none;html=1;rounded=0;exitX=0.993;exitY=0.374;exitDx=0;exitDy=0;exitPerimeter=0;" edge="1" target="-cQT6DstCa3h_BNdUmeV-132" parent="1" source="-cQT6DstCa3h_BNdUmeV-49">
          <mxGeometry relative="1" as="geometry">
            <mxPoint x="392" y="365" as="sourcePoint" />
            <mxPoint x="452" y="365" as="targetPoint" />
          </mxGeometry>
        </mxCell>
        <mxCell id="-cQT6DstCa3h_BNdUmeV-132" value="apellido2" style="ellipse;whiteSpace=wrap;html=1;align=center;" vertex="1" parent="1">
          <mxGeometry x="427" y="350" width="53" height="30" as="geometry" />
        </mxCell>
      </root>
    </mxGraphModel>
  </diagram>
</mxfile>
